<?xml version="1.0" standalone="no"?>
<!DOCTYPE svg PUBLIC "-//W3C//DTD SVG 20010904//EN"
 "http://www.w3.org/TR/2001/REC-SVG-20010904/DTD/svg10.dtd">
<svg version="1.0" xmlns="http://www.w3.org/2000/svg"
 width="146.000000pt" height="158.000000pt" viewBox="0 0 146.000000 158.000000"
 preserveAspectRatio="xMidYMid meet">

<g transform="translate(0.000000,158.000000) scale(0.100000,-0.100000)"
fill="#000000" stroke="none">
<path d="M550 1347 c0 -20 5 -48 11 -63 7 -21 7 -34 -2 -51 -10 -18 -8 -44 11
-140 12 -65 26 -128 31 -140 14 -37 -21 -31 -129 20 -17 8 -25 7 -35 -3 -10
-10 -9 -11 3 -5 13 8 13 6 2 -7 -11 -14 -11 -22 2 -47 9 -16 24 -35 33 -40 10
-6 14 -11 10 -11 -25 -1 134 -165 159 -165 8 0 18 -6 23 -13 4 -7 25 -14 47
-16 36 -3 39 -6 42 -36 2 -18 -1 -36 -7 -40 -8 -4 -8 -47 -1 -149 10 -142 25
-212 28 -134 8 173 8 170 34 202 15 17 29 44 33 61 9 39 23 38 28 -3 3 -22 4
-17 5 19 1 28 9 69 18 90 20 47 20 104 0 181 -19 74 -8 129 31 160 16 13 22
23 14 23 -8 0 -29 11 -47 25 -40 31 -65 32 -90 3 -10 -12 -13 -18 -5 -13 9 5
7 -2 -5 -18 -10 -15 -21 -26 -24 -27 -3 0 -21 32 -40 72 -19 39 -50 97 -68
127 -19 31 -34 58 -34 61 0 11 -50 89 -63 100 -13 11 -15 7 -15 -23z m314
-283 c9 -3 16 -11 16 -17 0 -6 -3 -7 -7 -4 -3 4 -11 -1 -18 -10 -11 -14 -13
-13 -17 10 -5 28 -1 31 26 21z m-98 -519 c-3 -20 -16 -31 -16 -13 0 13 8 28
16 28 1 0 1 -7 0 -15z"/>
<path d="M1073 1063 c9 -2 23 -2 30 0 6 3 -1 5 -18 5 -16 0 -22 -2 -12 -5z"/>
<path d="M995 1050 c-13 -5 -14 -9 -5 -9 8 0 24 4 35 9 13 5 14 9 5 9 -8 0
-24 -4 -35 -9z"/>
</g>
</svg>
